<svg width="506" height="180" viewBox="0 0 506 180" fill="none" xmlns="http://www.w3.org/2000/svg">
<g clip-path="url(#clip0_600_12)">
<path d="M59.1807 138.604C60.8716 140.153 64.1207 139.704 65.2489 137.634L69.3547 101.304C70.9071 95.2298 75.4993 93.0807 80.8012 90.9769C94.6908 85.4629 108.928 80.7435 122.869 75.3568H123.711L110.857 128.667C110.563 129.663 109.802 130.474 108.866 130.918C94.3939 135.374 79.902 142.684 65.461 146.894C62.9698 147.621 60.6143 147.794 58.0948 146.9L14.9783 130.918L13.276 129.51L0 75.0684L46.0857 92.1787C50.3753 93.9488 53.4914 97.4014 54.7921 101.852C56.5198 113.183 56.534 125.294 58.273 136.545C58.3578 137.094 58.7933 138.245 59.1835 138.604H59.1807Z" fill="#FFE699"/>
<path d="M54.289 57.5339C58.2591 57.3586 62.7494 60.4096 63.3122 64.49C64.7005 74.5509 52.3238 78.8575 45.9473 71.9636C42.9726 76.7961 35.1201 76.6632 33.9268 70.5441C29.476 72.2294 24.3127 71.7176 21.7169 67.3488C16.9833 59.3775 26.3203 51.0613 33.9268 55.5602C32.8155 46.028 43.2271 40.9127 50.9806 45.7198C54.9139 48.1573 56.6303 53.3941 54.289 57.5367V57.5339Z" fill="#FFE699"/>
<path d="M90.9866 49.13C98.3188 48.44 105.224 56.318 99.8628 62.7679C103.875 66.2347 101.698 70.6119 97.6458 72.7553C92.5164 75.4671 86.7536 74.9581 83.2784 70.0436C78.2055 73.2756 70.8026 71.7685 68.9844 65.6041C66.5526 57.3557 75.1629 51.5901 82.4357 55.2095C84.1974 51.8926 87.1325 49.4948 90.9866 49.1328V49.13Z" fill="#FFE699"/>
<path d="M78.6098 41.4161C83.0606 40.3671 86.1004 45.6068 81.9833 48.6098C79.5543 50.3827 78.7795 49.4326 76.2091 49.6221C74.0375 49.7833 71.0345 51.0133 69.3011 52.3282C68.5319 52.9135 67.2001 54.6921 66.5243 54.924C64.2565 55.7016 61.0753 55.0795 60.2412 52.5685C59.9895 51.8079 60.1846 51.1886 60.063 50.7192C59.8962 50.0745 59.1921 49.2771 59.1695 48.5787C59.1384 47.6342 60.5692 46.4947 60.4532 45.85C60.391 45.5078 59.4636 44.3513 59.2402 43.6755C57.5775 38.6931 61.5136 34.0557 66.2217 32.8482C72.0581 31.3496 79.2036 34.6721 78.6098 41.4161Z" fill="#FFE699"/>
<path d="M62.2036 93.4456C63.5015 91.1268 65.9757 89.4302 68.17 87.957C83.0719 82.3469 97.937 76.0213 113.037 70.9004C114.148 70.5243 115.358 69.7665 116.198 71.0135C116.801 71.9099 115.703 73.2106 114.807 73.516C102.818 77.9131 90.7293 82.1178 78.8247 86.7354C74.34 88.4745 69.2049 89.9505 65.8796 93.5841C64.9351 94.6162 62.9614 98.4392 62.0593 98.5439C60.5578 98.7135 59.9301 96.2987 59.1666 95.2242C57.0063 92.1787 53.8279 90.1541 50.4093 88.712C37.0287 83.0651 22.3501 78.8151 8.76592 73.5188C6.64798 72.696 6.78371 69.8541 9.34277 70.3773C23.1928 76.2758 38.2474 80.3392 52.0267 86.2434C55.8667 87.8891 59.3023 89.9901 61.7879 93.4484H62.2036V93.4456Z" fill="#FFE699"/>
</g>
<path d="M210.977 138.781C202.961 138.781 195.39 137.099 188.264 133.734C187.274 133.041 186.977 132.101 187.373 130.913L192.124 109.981C192.124 109.487 192.371 109.239 192.866 109.239C193.46 109.239 193.806 109.487 193.905 109.981C197.567 126.806 204.594 135.219 214.985 135.219C219.835 135.219 223.744 133.536 226.713 130.171C229.781 126.707 231.315 122.155 231.315 116.513C231.315 111.763 229.93 107.656 227.159 104.192C224.486 100.728 220.577 97.0165 215.431 93.0577C211.67 90.1876 208.701 87.7629 206.524 85.7835C204.346 83.8041 202.515 81.4783 201.031 78.8062C199.546 76.134 198.804 73.1649 198.804 69.899C198.804 68.5134 198.952 67.0783 199.249 65.5938C200.833 58.1711 204.742 52.4804 210.977 48.5216C217.311 44.5629 224.437 42.5835 232.355 42.5835C238.194 42.5835 244.033 43.7711 249.872 46.1464C251.258 46.8392 251.802 47.6804 251.505 48.6701L249.278 67.9691C249.179 68.266 248.882 68.4144 248.388 68.4144C247.992 68.4144 247.744 68.266 247.645 67.9691C246.062 61.0412 243.538 55.5979 240.074 51.6392C236.61 47.6804 232.701 45.701 228.346 45.701C224.981 45.701 222.21 46.6412 220.033 48.5216C217.856 50.3031 216.272 52.4804 215.282 55.0536C214.293 57.5278 213.798 59.9526 213.798 62.3278C213.798 65.2969 214.491 67.9691 215.876 70.3443C217.262 72.7196 218.895 74.7979 220.775 76.5794C222.656 78.2619 225.476 80.5876 229.237 83.5567C235.076 88.1093 239.53 92.266 242.598 96.0268C245.666 99.7876 247.2 104.241 247.2 109.388C247.2 111.07 247.101 112.357 246.903 113.247C245.517 120.769 241.707 126.905 235.472 131.656C229.237 136.406 221.072 138.781 210.977 138.781ZM271.506 138.93C264.578 138.93 259.481 136.703 256.215 132.249C252.949 127.697 251.316 122.006 251.316 115.177C251.316 112.703 251.563 109.981 252.058 107.012C253.048 101.272 255.275 96.1753 258.739 91.7216C262.302 87.268 266.458 83.8536 271.209 81.4783C275.959 79.0041 280.66 77.767 285.312 77.767C288.974 77.767 292.19 78.5588 294.961 80.1423C297.831 81.7258 299.267 84.0021 299.267 86.9711C299.267 89.2474 298.574 91.0783 297.188 92.4639C295.902 93.7505 294.071 94.3938 291.695 94.3938C289.32 94.3938 287.588 93.8 286.5 92.6124C285.411 91.3258 284.669 89.6928 284.273 87.7134C283.778 85.833 283.135 84.3979 282.343 83.4082C281.65 82.4186 280.462 81.9237 278.78 81.9237C275.811 81.9237 273.188 83.7546 270.912 87.4165C268.636 90.9794 267.003 95.7794 266.013 101.816C265.419 105.082 265.122 108.2 265.122 111.169C265.122 117.404 266.409 122.402 268.982 126.163C271.555 129.825 275.415 131.656 280.561 131.656C282.541 131.656 284.817 131.21 287.39 130.32C289.963 129.33 292.042 128.241 293.625 127.054H293.774C294.071 127.054 294.368 127.202 294.664 127.499C294.961 127.796 295.011 128.093 294.813 128.39C291.25 131.854 287.44 134.476 283.382 136.258C279.324 138.039 275.365 138.93 271.506 138.93ZM317.648 138.781C310.819 138.781 305.673 136.703 302.209 132.546C298.844 128.39 297.161 123.144 297.161 116.81C297.161 114.633 297.409 112.208 297.904 109.536C298.893 104.192 301.071 99.0948 304.436 94.2454C307.9 89.3959 312.205 85.4371 317.351 82.3691C322.498 79.301 328.04 77.767 333.978 77.767C337.739 77.767 340.658 78.4103 342.737 79.6969C344.815 80.9835 345.854 82.7649 345.854 85.0412C345.854 88.5051 343.875 91.8206 339.916 94.9876C335.957 98.0557 330.811 100.678 324.477 102.856C318.143 105.033 311.561 106.468 304.733 107.161L305.03 105.231C313.145 103.944 319.479 101.866 324.032 98.9959C328.683 96.1258 331.009 92.167 331.009 87.1196C331.009 85.4371 330.564 84.1505 329.673 83.2598C328.881 82.2701 327.743 81.7753 326.258 81.7753C322.992 81.7753 320.122 83.9031 317.648 88.1588C315.174 92.4144 313.392 97.9072 312.304 104.637C311.908 107.012 311.71 109.586 311.71 112.357C311.71 118.394 312.947 123.243 315.421 126.905C317.896 130.468 321.557 132.249 326.407 132.249C328.485 132.249 330.712 131.903 333.087 131.21C335.561 130.419 337.788 129.231 339.768 127.647H339.916C340.213 127.647 340.46 127.796 340.658 128.093C340.955 128.39 341.005 128.637 340.807 128.835C337.244 132.299 333.483 134.823 329.524 136.406C325.566 137.99 321.607 138.781 317.648 138.781ZM322.25 29.0742C322.151 28.3814 323.24 28.035 325.516 28.035C327.693 28.035 330.019 28.332 332.493 28.9258C335.067 29.5196 336.304 30.1134 336.205 30.7072L332.642 66.3361C332.642 66.534 332.394 66.6825 331.9 66.7814C331.504 66.8804 331.306 66.7814 331.306 66.4845L322.25 29.0742ZM392.828 138.336C388.078 138.336 385.702 135.565 385.702 130.023C385.702 128.538 385.95 126.46 386.445 123.788L390.75 100.184C391.245 97.4124 391.492 95.1856 391.492 93.5031C391.492 88.6536 389.909 86.2289 386.742 86.2289C383.872 86.2289 380.902 88.1588 377.834 92.0186C374.766 95.7794 371.896 101.371 369.224 108.794C366.552 116.216 364.375 125.025 362.692 135.219L360.02 135.07C361.9 123.392 364.573 113.247 368.036 104.637C371.5 96.0268 375.459 89.3959 379.913 84.7443C384.465 80.0928 389.265 77.767 394.313 77.767C401.142 77.767 404.556 81.8742 404.556 90.0887C404.556 91.9691 404.309 94.3938 403.814 97.3629L398.915 123.788C398.618 125.272 398.469 126.46 398.469 127.351C398.469 129.627 399.261 130.765 400.845 130.765C401.834 130.765 402.923 130.32 404.111 129.429C405.397 128.538 406.931 127.252 408.713 125.569C408.911 125.371 409.059 125.272 409.158 125.272C409.455 125.272 409.702 125.47 409.9 125.866C410.098 126.163 410.098 126.46 409.9 126.757C406.535 130.715 403.517 133.635 400.845 135.515C398.272 137.396 395.599 138.336 392.828 138.336ZM354.379 138.188C351.113 138.188 349.48 137.792 349.48 137L350.074 133.882C351.063 129.231 351.608 126.608 351.707 126.014L357.793 92.9093C357.991 92.0186 358.09 90.9299 358.09 89.6433C358.09 86.9711 357.249 85.635 355.566 85.635C353.488 85.635 350.618 87.6144 346.956 91.5732C346.857 91.6722 346.709 91.7216 346.511 91.7216C346.214 91.7216 345.966 91.5732 345.768 91.2763C345.571 90.8804 345.571 90.534 345.768 90.2371C349.331 86.0804 352.498 83.0619 355.269 81.1814C358.14 79.301 361.01 78.3608 363.88 78.3608C368.531 78.3608 370.857 80.9835 370.857 86.2289C370.857 87.7134 370.709 89.3464 370.412 91.1278L362.692 135.219C362.197 137.198 359.426 138.188 354.379 138.188ZM433.129 138.781C426.3 138.781 421.154 136.703 417.69 132.546C414.325 128.39 412.642 123.144 412.642 116.81C412.642 114.633 412.89 112.208 413.384 109.536C414.374 104.192 416.551 99.0948 419.916 94.2454C423.38 89.3959 427.685 85.4371 432.832 82.3691C437.978 79.301 443.521 77.767 449.459 77.767C453.219 77.767 456.139 78.4103 458.217 79.6969C460.296 80.9835 461.335 82.7649 461.335 85.0412C461.335 88.5051 459.356 91.8206 455.397 94.9876C451.438 98.0557 446.292 100.678 439.958 102.856C433.624 105.033 427.042 106.468 420.213 107.161L420.51 105.231C428.626 103.944 434.96 101.866 439.512 98.9959C444.164 96.1258 446.49 92.167 446.49 87.1196C446.49 85.4371 446.044 84.1505 445.154 83.2598C444.362 82.2701 443.224 81.7753 441.739 81.7753C438.473 81.7753 435.603 83.9031 433.129 88.1588C430.655 92.4144 428.873 97.9072 427.784 104.637C427.389 107.012 427.191 109.586 427.191 112.357C427.191 118.394 428.428 123.243 430.902 126.905C433.376 130.468 437.038 132.249 441.888 132.249C443.966 132.249 446.193 131.903 448.568 131.21C451.042 130.419 453.269 129.231 455.248 127.647H455.397C455.694 127.647 455.941 127.796 456.139 128.093C456.436 128.39 456.485 128.637 456.288 128.835C452.725 132.299 448.964 134.823 445.005 136.406C441.046 137.99 437.088 138.781 433.129 138.781ZM474.016 138.633C469.76 138.633 466.148 137.693 463.179 135.812C460.21 133.932 458.725 131.656 458.725 128.984C458.725 126.707 459.369 124.975 460.655 123.788C461.942 122.501 463.525 121.858 465.406 121.858C467.088 121.858 468.424 122.303 469.414 123.194C470.404 124.085 471.542 125.52 472.829 127.499C474.115 129.577 475.303 131.111 476.391 132.101C477.579 133.091 479.163 133.586 481.142 133.586C482.824 133.586 484.062 133.14 484.853 132.249C485.744 131.26 486.338 129.726 486.635 127.647C486.734 127.252 486.783 126.658 486.783 125.866C486.783 122.996 485.942 120.522 484.259 118.443C482.577 116.365 479.954 113.94 476.391 111.169C472.829 108.2 470.156 105.676 468.375 103.598C466.692 101.421 465.851 98.8474 465.851 95.8783C465.851 95.2845 465.95 94.3938 466.148 93.2062C466.643 90.732 467.88 88.3567 469.859 86.0804C471.938 83.8041 474.56 81.9237 477.727 80.4392C480.993 78.9546 484.507 78.2124 488.268 78.2124C492.721 78.2124 496.235 78.9546 498.808 80.4392C501.48 81.9237 502.816 83.9031 502.816 86.3773C502.816 88.4557 502.123 90.1381 500.738 91.4247C499.352 92.6124 497.818 93.2062 496.136 93.2062C494.057 93.2062 492.523 92.7608 491.534 91.8701C490.544 90.8804 489.653 89.4948 488.862 87.7134C487.971 85.932 487.08 84.5959 486.189 83.7051C485.299 82.8144 483.864 82.3691 481.884 82.3691C480.301 82.3691 479.064 82.8639 478.173 83.8536C477.282 84.7443 476.738 85.7835 476.54 86.9711C476.441 87.367 476.391 87.9608 476.391 88.7526C476.391 91.3258 477.233 93.6021 478.915 95.5814C480.598 97.5608 483.171 99.9361 486.635 102.707C490.396 105.775 493.167 108.447 494.948 110.724C496.73 112.901 497.62 115.474 497.62 118.443C497.62 118.938 497.521 119.779 497.323 120.967C496.829 123.639 495.542 126.361 493.464 129.132C491.385 131.804 488.614 134.08 485.15 135.961C481.785 137.742 478.074 138.633 474.016 138.633Z" fill="#FFE699"/>
<defs>
<clipPath id="clip0_600_12">
<rect width="123.711" height="115.011" fill="white" transform="translate(0 32.4949)"/>
</clipPath>
</defs>
</svg>
